Coordinates
nRows=247
nColumns=2
inDegrees=yes
endheader
time	ankle_angle_r	
2.96069	 18.878641	
2.99395	 18.875122	
3.02722	 18.863575	
3.06048	 18.875122	
3.09375	 18.909546	
3.12702	 19.016453	
3.16028	 18.920898	
3.19355	 19.047165	
3.22681	 18.970966	
3.26008	 19.021229	
3.29335	 18.931671	
3.32661	 19.006357	
3.35988	 18.997192	
3.39315	 19.047745	
3.42641	 19.022196	
3.45968	 19.038000	
3.49294	 19.073486	
3.52621	 19.068552	
3.55948	 19.042969	
3.59274	 19.033066	
3.62601	 19.002645	
3.65927	 18.987482	
3.69254	 18.962708	
3.72581	 18.993420	
3.75907	 18.880960	
3.79234	 18.905640	
3.8256	 18.829346	
3.85887	 18.850735	
3.89214	 18.963867	
3.9254	 18.875122	
3.95867	 18.881542	
3.99194	 18.864153	
4.0252	 18.842571	
4.05847	 18.805538	
4.09173	 18.849764	
4.125	 18.814087	
4.15827	 18.837605	
4.19153	 18.829346	
4.2248	 18.806021	
4.25806	 18.806118	
4.29133	 18.845091	
4.3246	 18.836536	
4.35786	 18.882801	
4.39113	 18.837023	
4.4244	 18.860151	
4.45766	 18.898251	
4.49093	 18.891054	
4.52419	 18.837408	
4.55746	 18.883282	
4.59073	 18.937410	
4.62399	 19.020803	
4.65726	 18.920898	
4.69052	 18.920898	
4.72379	 18.938185	
4.75706	 19.021191	
4.79032	 19.018873	
4.82359	 18.990868	
4.85685	 19.012451	
4.89012	 19.067354	
4.92339	 19.027710	
4.95665	 18.978552	
4.98992	 19.033552	
5.02319	 19.012451	
5.05645	 18.987583	
5.08972	 19.042969	
5.12298	 19.042969	
5.15625	 19.058228	
5.18952	 19.073486	
5.22278	 18.987099	
5.25605	 19.012451	
5.28931	 19.042969	
5.32258	 19.007576	
5.35585	 18.992414	
5.38911	 18.980721	
5.42238	 18.986519	
5.45565	 19.038481	
5.48891	 19.012451	
5.52218	 19.038673	
5.55544	 19.027710	
5.58871	 18.977831	
5.62198	 18.955421	
5.65524	 18.978025	
5.68851	 19.031521	
5.72177	 18.989761	
5.75504	 19.000811	
5.78831	 19.005407	
5.82157	 19.000618	
5.85484	 19.027710	
5.8881	 19.027710	
5.92137	 19.003046	
5.95464	 18.994154	
5.9879	 19.030651	
6.02117	 19.024864	
6.05444	 19.040220	
6.0877	 18.971977	
6.12097	 18.976824	
6.15423	 18.969133	
6.1875	 19.027710	
6.22077	 19.055964	
6.25403	 19.012451	
6.2873	 19.067272	
6.32056	 19.012451	
6.35383	 19.010572	
6.3871	 19.058228	
6.42036	 19.012451	
6.45363	 19.029299	
6.4869	 19.056736	
6.52016	 18.997192	
6.55343	 18.998489	
6.58669	 19.026508	
6.61996	 18.858759	
6.65323	 18.875122	
6.68649	 18.965763	
6.71976	 18.859863	
6.75302	 18.889664	
6.78629	 18.874500	
6.81956	 18.798828	
6.85282	 18.859436	
6.88609	 18.829678	
6.91935	 18.814322	
6.95262	 18.814087	
6.98589	 18.844604	
7.01915	 18.798883	
7.05242	 18.829346	
7.08569	 18.844107	
7.11895	 18.798483	
7.15222	 18.828903	
7.18548	 18.829346	
7.21875	 18.754959	
7.25202	 18.828613	
7.28528	 18.859863	
7.31855	 18.828421	
7.35181	 18.860886	
7.38508	 18.916422	
7.41835	 18.811655	
7.45161	 18.877747	
7.48488	 18.905640	
7.51815	 18.858356	
7.55141	 18.949814	
7.58468	 18.966675	
7.61794	 18.902048	
7.65121	 18.863649	
7.68448	 18.934168	
7.71774	 18.966675	
7.75101	 19.042969	
7.78427	 19.042969	
7.81754	 18.997192	
7.85081	 19.025238	
7.88407	 19.009882	
7.91734	 18.984600	
7.9506	 18.997192	
7.98387	 19.027710	
8.01714	 18.984890	
8.0504	 19.018557	
8.08367	 19.046118	
8.11694	 18.951416	
8.1502	 18.948072	
8.18347	 18.954855	
8.21673	 18.878658	
8.25	 18.867855	
8.28327	 18.920898	
8.31653	 18.936157	
8.3498	 18.844604	
8.38306	 18.905640	
8.41633	 18.894497	
8.4496	 18.898808	
8.48286	 18.814087	
8.51613	 18.849010	
8.5494	 18.844604	
8.58266	 18.850664	
8.61593	 18.829346	
8.64919	 18.798828	
8.68246	 18.870232	
8.71573	 18.839619	
8.74899	 18.824263	
8.78226	 18.834244	
8.81552	 18.814087	
8.84879	 18.804201	
8.88206	 18.839134	
8.91532	 18.863989	
8.94859	 18.875122	
8.98185	 18.859863	
9.01512	 18.930300	
9.04839	 18.970026	
9.08165	 18.936157	
9.11492	 18.991045	
9.14819	 19.006208	
9.18145	 19.012451	
9.21472	 18.981934	
9.24798	 18.999384	
9.28125	 19.058228	
9.31452	 19.005724	
9.34778	 19.004017	
9.38105	 18.958336	
9.41431	 18.998417	
9.44758	 18.997192	
9.48085	 19.042969	
9.51411	 18.989885	
9.54738	 18.974529	
9.58065	 19.065987	
9.61391	 18.898108	
9.64718	 18.890381	
9.68044	 18.951416	
9.71371	 18.844604	
9.74698	 18.860573	
9.78024	 18.850880	
9.81351	 18.919802	
9.84677	 18.812798	
9.88004	 18.830828	
9.91331	 18.844604	
9.94657	 18.857994	
9.97984	 18.859863	
10.0131	 18.829346	
10.0464	 18.814087	
10.0796	 18.820395	
10.1129	 18.868910	
10.1462	 18.817116	
10.1794	 18.841381	
10.2127	 18.871706	
10.246	 18.917290	
10.2792	 18.926626	
10.3125	 18.901644	
10.3458	 18.920898	
10.379	 18.991755	
10.4123	 18.965910	
10.4456	 18.981934	
10.4788	 18.920898	
10.5121	 19.017502	
10.5454	 19.032665	
10.5786	 18.977076	
10.6119	 19.048706	
10.6452	 19.032373	
10.6784	 19.068918	
10.7117	 19.049286	
10.745	 19.021200	
10.7782	 19.027710	
10.8115	 19.038788	
10.8448	 19.020620	
10.878	 19.054239	
10.9113	 19.035492	
10.9446	 19.027710	
10.9778	 19.054529	
11.0111	 19.039368	
11.0444	 18.966675	
11.0776	 19.000599	
11.1109	 18.966675	
11.1442	 18.942585	
